<?xml version="1.0" encoding="UTF-8"?>
<svg id="Layer_1" data-name="Layer 1" xmlns="http://www.w3.org/2000/svg" viewBox="0 0 287.95 320.52">
  <defs>
    <style>
      .cls-1 {
        fill: #e74c3c;
        stroke-width: 0px;
      }
    </style>
  </defs>
  <path class="cls-1" d="m144.07,64.18c42.42,0,84.83-.03,127.25.02,12.62.01,20.47,12.66,14.73,23.68-2.96,5.68-7.9,8.51-14.25,8.78-3.49.15-6.98.03-10.48.05q-5.09.02-5.11,5.28c0,1.12,0,2.25,0,3.37,0,49.53.03,99.05-.02,148.58-.01,14.34-3.64,27.67-12.17,39.36-13.06,17.89-31,26.76-52.91,27-31.43.34-62.87.23-94.31.05-32.4-.19-58.38-22.22-64.1-54.08-.77-4.29-1.07-8.65-1.07-13.03.02-50.27.01-100.55,0-150.82q0-5.71-5.81-5.71c-3.24,0-6.49.08-9.73-.04C6.62,96.32-.08,89.34,0,80c.08-8.9,7.16-15.8,16.45-15.81,42.54-.03,85.08-.01,127.62-.01Zm16.42,127.45c0,16.21-.07,32.43.03,48.64.05,8.18,5.71,14.2,13.75,15.04,9.96,1.04,17.28-6.4,17.3-17.84.06-30.06.02-60.12.02-90.18,0-2.88-.28-5.76-1.27-8.46-2.63-7.24-9.89-11.18-17.76-9.77-6.85,1.23-11.99,7.3-12.04,14.67-.1,15.96-.03,31.93-.03,47.89Zm-33.13.73h-.02c0-16.21.03-32.43-.02-48.64-.02-5.92-2.96-10.31-8.03-13-5.21-2.76-10.58-2.5-15.66.66-6.05,3.76-7.36,9.72-7.37,16.21-.02,29.93-.01,59.86,0,89.8,0,1.37.08,2.75.3,4.09,1.5,9.02,8.09,14.64,16.43,14.04,8.71-.63,14.34-6.99,14.36-16.4.04-15.59.01-31.18.01-46.77Z"/>
  <path class="cls-1" d="m143.91,32.95c-15.34,0-30.69.01-46.03,0-5.9,0-11.09-1.78-14.79-6.64-7.09-9.34-2.35-22.73,9.05-25.57,2.03-.51,4.19-.7,6.29-.7C128.75,0,159.06.01,189.38,0c6.62,0,12.36,1.88,16.07,7.74,3.42,5.4,3.65,11.04.48,16.66-3.41,6.06-8.96,8.48-15.62,8.52-15.47.08-30.94.03-46.41.03Z"/>
</svg>